# This file uses centimeters as units for non-parametric coordinates.

mtllib wall_tile2.mtl
g default
v -75.069885 -50.000000 -22.500000
v 74.930115 -50.000000 -22.500000
v -75.069885 50.000000 -22.500000
v 74.930115 50.000000 -22.500000
v -75.069885 50.000000 -23.500000
v 74.930115 50.000000 -23.500000
v -75.069885 -50.000000 -23.500000
v 74.930115 -50.000000 -23.500000
vt -0.013239 0.013200
vt 2.010751 0.013200
vt 2.010751 2.022674
vt -0.013239 2.022674
vt 2.010751 4.032147
vt -0.013239 4.032147
vt 2.010751 6.041620
vt -0.013239 6.041620
vt 2.010751 8.051095
vt -0.013239 8.051095
vt 4.034739 0.013200
vt 4.034739 2.022674
vt -2.037228 0.013200
vt -2.037228 2.022674
vn 0.000000 0.000000 1.000000
vn 0.000000 0.000000 1.000000
vn 0.000000 0.000000 1.000000
vn 0.000000 0.000000 1.000000
vn 0.000000 1.000000 0.000000
vn 0.000000 1.000000 0.000000
vn 0.000000 1.000000 0.000000
vn 0.000000 1.000000 0.000000
vn 0.000000 0.000000 -1.000000
vn 0.000000 0.000000 -1.000000
vn 0.000000 0.000000 -1.000000
vn 0.000000 0.000000 -1.000000
vn 0.000000 -1.000000 0.000000
vn 0.000000 -1.000000 0.000000
vn 0.000000 -1.000000 0.000000
vn 0.000000 -1.000000 0.000000
vn 1.000000 0.000000 0.000000
vn 1.000000 0.000000 0.000000
vn 1.000000 0.000000 0.000000
vn 1.000000 0.000000 0.000000
vn -1.000000 0.000000 0.000000
vn -1.000000 0.000000 0.000000
vn -1.000000 0.000000 0.000000
vn -1.000000 0.000000 0.000000
s off
g wall:wall
usemtl wall:initialShadingGroup
f 1/1/1 2/2/2 4/3/3 3/4/4
f 3/4/5 4/3/6 6/5/7 5/6/8
f 5/6/9 6/5/10 8/7/11 7/8/12
f 7/8/13 8/7/14 2/9/15 1/10/16
f 2/2/17 8/11/18 6/12/19 4/3/20
f 7/13/21 1/1/22 3/4/23 5/14/24
