# This file uses centimeters as units for non-parametric coordinates.

mtllib support.mtl
g default
v 0.190211 -1.251269 -3.173975
v 0.161804 -1.251269 -3.229729
v 0.117557 -1.251269 -3.273975
v 0.061803 -1.251269 -3.302383
v 0.000000 -1.251269 -3.312172
v -0.061803 -1.251269 -3.302383
v -0.117557 -1.251269 -3.273975
v -0.161803 -1.251269 -3.229729
v -0.190211 -1.251269 -3.173975
v -0.200000 -1.251269 -3.112171
v -0.190211 -1.251269 -3.050368
v -0.161803 -1.251269 -2.994614
v -0.117557 -1.251269 -2.950368
v -0.061803 -1.251269 -2.921960
v -0.000000 -1.251269 -2.912171
v 0.061803 -1.251269 -2.921960
v 0.117557 -1.251269 -2.950368
v 0.161803 -1.251269 -2.994614
v 0.190211 -1.251269 -3.050368
v 0.200000 -1.251269 -3.112171
v 0.190211 23.748731 -3.173975
v 0.161804 23.748731 -3.229729
v 0.117557 23.748731 -3.273975
v 0.061803 23.748731 -3.302383
v 0.000000 23.748731 -3.312172
v -0.061803 23.748731 -3.302383
v -0.117557 23.748731 -3.273975
v -0.161803 23.748731 -3.229729
v -0.190211 23.748731 -3.173975
v -0.200000 23.748731 -3.112171
v -0.190211 23.748731 -3.050368
v -0.161803 23.748731 -2.994614
v -0.117557 23.748731 -2.950368
v -0.061803 23.748731 -2.921960
v -0.000000 23.748731 -2.912171
v 0.061803 23.748731 -2.921960
v 0.117557 23.748731 -2.950368
v 0.161803 23.748731 -2.994614
v 0.190211 23.748731 -3.050368
v 0.200000 23.748731 -3.112171
vt 0.977408 0.086373
vt 0.906388 0.051527
vt 0.795772 0.023873
vt 0.656388 0.006118
vt 0.501880 -0.000000
vt 0.347371 0.006118
vt 0.207987 0.023873
vt 0.097371 0.051527
vt 0.026351 0.086373
vt 0.001880 0.125000
vt 0.026351 0.163627
vt 0.097371 0.198473
vt 0.207987 0.226127
vt 0.347371 0.243882
vt 0.501880 0.250000
vt 0.656388 0.243882
vt 0.795772 0.226127
vt 0.906388 0.198473
vt 0.977408 0.163627
vt 1.001880 0.125000
vt 0.000000 0.250000
vt 0.050000 0.250000
vt 0.100000 0.250000
vt 0.150000 0.250000
vt 0.200000 0.250000
vt 0.250000 0.250000
vt 0.300000 0.250000
vt 0.350000 0.250000
vt 0.400000 0.250000
vt 0.450000 0.250000
vt 0.500000 0.250000
vt 0.550000 0.250000
vt 0.600000 0.250000
vt 0.650000 0.250000
vt 0.700000 0.250000
vt 0.750000 0.250000
vt 0.800000 0.250000
vt 0.850000 0.250000
vt 0.900000 0.250000
vt 0.950000 0.250000
vt 1.000000 0.250000
vt 0.000000 0.750000
vt 0.050000 0.750000
vt 0.100000 0.750000
vt 0.150000 0.750000
vt 0.200000 0.750000
vt 0.250000 0.750000
vt 0.300000 0.750000
vt 0.350000 0.750000
vt 0.400000 0.750000
vt 0.450000 0.750000
vt 0.500000 0.750000
vt 0.550000 0.750000
vt 0.600000 0.750000
vt 0.650000 0.750000
vt 0.700000 0.750000
vt 0.750000 0.750000
vt 0.800000 0.750000
vt 0.850000 0.750000
vt 0.900000 0.750000
vt 0.950000 0.750000
vt 1.000000 0.750000
vt 0.977408 0.836373
vt 0.906388 0.801527
vt 0.795772 0.773873
vt 0.656388 0.756118
vt 0.501880 0.750000
vt 0.347371 0.756118
vt 0.207987 0.773873
vt 0.097371 0.801527
vt 0.026351 0.836373
vt 0.001880 0.875000
vt 0.026351 0.913627
vt 0.097371 0.948473
vt 0.207987 0.976127
vt 0.347371 0.993882
vt 0.501880 1.000000
vt 0.656388 0.993882
vt 0.795772 0.976127
vt 0.906388 0.948473
vt 0.977408 0.913627
vt 1.001880 0.875000
vn 0.951057 0.000000 -0.309016
vn 0.809017 0.000000 -0.587785
vn 0.809017 0.000000 -0.587785
vn 0.951057 0.000000 -0.309016
vn 0.587785 0.000000 -0.809017
vn 0.587785 0.000000 -0.809017
vn 0.309017 0.000000 -0.951057
vn 0.309017 0.000000 -0.951057
vn 0.000000 0.000000 -1.000000
vn 0.000000 0.000000 -1.000000
vn -0.309017 0.000000 -0.951057
vn -0.309017 0.000000 -0.951057
vn -0.587785 0.000000 -0.809017
vn -0.587785 0.000000 -0.809017
vn -0.809017 0.000000 -0.587785
vn -0.809017 0.000000 -0.587785
vn -0.951057 0.000000 -0.309017
vn -0.951057 0.000000 -0.309017
vn -1.000000 0.000000 0.000000
vn -1.000000 0.000000 0.000000
vn -0.951057 0.000000 0.309017
vn -0.951057 0.000000 0.309017
vn -0.809017 0.000000 0.587785
vn -0.809017 0.000000 0.587785
vn -0.587785 0.000000 0.809017
vn -0.587785 0.000000 0.809017
vn -0.309017 0.000000 0.951057
vn -0.309017 0.000000 0.951057
vn 0.000000 0.000000 1.000000
vn 0.000000 0.000000 1.000000
vn 0.309017 0.000000 0.951057
vn 0.309017 0.000000 0.951057
vn 0.587785 0.000000 0.809017
vn 0.587785 0.000000 0.809017
vn 0.809017 0.000000 0.587785
vn 0.809017 0.000000 0.587785
vn 0.951057 0.000000 0.309017
vn 0.951057 0.000000 0.309017
vn 1.000000 0.000000 0.000001
vn 1.000000 0.000000 0.000001
vn 0.000000 -1.000000 0.000005
vn 0.000000 -1.000000 0.000005
vn 0.000000 -1.000000 0.000005
vn 0.000000 -1.000000 0.000005
vn 0.000000 -1.000000 0.000005
vn 0.000000 -1.000000 0.000005
vn 0.000000 -1.000000 0.000005
vn 0.000000 -1.000000 0.000005
vn 0.000000 -1.000000 0.000005
vn 0.000000 -1.000000 0.000005
vn 0.000000 -1.000000 0.000005
vn 0.000000 -1.000000 0.000005
vn 0.000000 -1.000000 0.000005
vn 0.000000 -1.000000 0.000005
vn 0.000000 -1.000000 0.000005
vn 0.000000 -1.000000 0.000005
vn 0.000000 -1.000000 0.000005
vn 0.000000 -1.000000 0.000005
vn 0.000000 -1.000000 0.000005
vn 0.000000 -1.000000 0.000005
vn 0.000000 1.000000 -0.000002
vn 0.000000 1.000000 -0.000002
vn 0.000000 1.000000 -0.000002
vn 0.000000 1.000000 -0.000002
vn 0.000000 1.000000 -0.000002
vn 0.000000 1.000000 -0.000002
vn 0.000000 1.000000 -0.000002
vn 0.000000 1.000000 -0.000002
vn 0.000000 1.000000 -0.000002
vn 0.000000 1.000000 -0.000002
vn 0.000000 1.000000 -0.000002
vn 0.000000 1.000000 -0.000002
vn 0.000000 1.000000 -0.000002
vn 0.000000 1.000000 -0.000002
vn 0.000000 1.000000 -0.000002
vn 0.000000 1.000000 -0.000002
vn 0.000000 1.000000 -0.000002
vn 0.000000 1.000000 -0.000002
vn 0.000000 1.000000 -0.000002
vn 0.000000 1.000000 -0.000002
s 1
g support
usemtl initialShadingGroup
f 1/21/1 2/22/2 22/43/3 21/42/4
f 2/22/2 3/23/5 23/44/6 22/43/3
f 3/23/5 4/24/7 24/45/8 23/44/6
f 4/24/7 5/25/9 25/46/10 24/45/8
f 5/25/9 6/26/11 26/47/12 25/46/10
f 6/26/11 7/27/13 27/48/14 26/47/12
f 7/27/13 8/28/15 28/49/16 27/48/14
f 8/28/15 9/29/17 29/50/18 28/49/16
f 9/29/17 10/30/19 30/51/20 29/50/18
f 10/30/19 11/31/21 31/52/22 30/51/20
f 11/31/21 12/32/23 32/53/24 31/52/22
f 12/32/23 13/33/25 33/54/26 32/53/24
f 13/33/25 14/34/27 34/55/28 33/54/26
f 14/34/27 15/35/29 35/56/30 34/55/28
f 15/35/29 16/36/31 36/57/32 35/56/30
f 16/36/31 17/37/33 37/58/34 36/57/32
f 17/37/33 18/38/35 38/59/36 37/58/34
f 18/38/35 19/39/37 39/60/38 38/59/36
f 19/39/37 20/40/39 40/61/40 39/60/38
f 20/40/39 1/41/1 21/62/4 40/61/40
s off
f 1/1/41 20/20/42 19/19/43 18/18/44 17/17/45 16/16/46 15/15/47 14/14/48 13/13/49 12/12/50 11/11/51 10/10/52 9/9/53 8/8/54 7/7/55 6/6/56 5/5/57 4/4/58 3/3/59 2/2/60
f 21/81/61 22/80/62 23/79/63 24/78/64 25/77/65 26/76/66 27/75/67 28/74/68 29/73/69 30/72/70 31/71/71 32/70/72 33/69/73 34/68/74 35/67/75 36/66/76 37/65/77 38/64/78 39/63/79 40/82/80
